<svg id="f1" xmlns="http://www.w3.org/2000/svg" xmlns:xlink="http://www.w3.org/1999/xlink" viewBox="0 0 108.86 72.53"><defs><style>.cls-f1-1{isolation:isolate;}.cls-f1-2{fill:#f15d22;}.cls-f1-3{fill:#d9531e;}.cls-f1-4{fill:url(#linear-gradient);}.cls-f1-5{fill:#fff;}.cls-f1-6{fill:#0096d6;}.cls-f1-7{fill:#58595b;}.cls-f1-8{fill:#f37321;}.cls-f1-11,.cls-f1-13,.cls-f1-9{opacity:0.5;}.cls-f1-10{fill:#ffd200;}.cls-f1-11{fill:#b95915;}.cls-f1-11,.cls-f1-13{mix-blend-mode:multiply;}.cls-f1-12{fill:#9c272b;}.cls-f1-13{fill:#c88a12;}</style><linearGradient id="linear-gradient" y1="35.86" x2="108.86" y2="35.86" gradientUnits="userSpaceOnUse"><stop offset="0" stop-color="#f78e1e"/><stop offset="1" stop-color="#e31b23"/></linearGradient></defs><title>f1</title><g class="cls-f1-1"><g id="Layer_2" data-name="Layer 2"><g id="Layer_1-2" data-name="Layer 1"><g id="Ca2"><path class="cls-f1-2" d="M64.23,51.51s6.41,6.36,11.62,4.87,8.18-3.35,8.92-6-5.83-8.3-6.38-8S65.25,44,64.23,51.51Z"/><path class="cls-f1-3" d="M77.21,53.17c-4.73,1.35-10.56-4.42-10.56-4.42a6,6,0,0,1,.78-2.24,7.49,7.49,0,0,0-3.2,5s6.41,6.36,11.62,4.87,8.18-3.35,8.92-6a2.29,2.29,0,0,0-.12-1.34C83.46,50.78,81,52.09,77.21,53.17Z"/><path class="cls-f1-2" d="M21.77,15.19s2-13.78,11-15S61,4.33,65.06,7.42s4.17,8.86,6.36,12.73c0,0-20.88-3.47-30.52-5.61S21.77,15.19,21.77,15.19Z"/><path class="cls-f1-3" d="M71.42,20.15l-3.93-3-2.42-1.28,1.21-1.78c1.22-1.79-3.84-1.53-4.65-.94s-1.82,1.15-4.44.27S52.54,11.65,50.52,11s-4.25-1.13-3.23-1.1,2.22-1.15-2-3.29-7.88,2.2-10.5,2.73-2.63-.88-.61-2.44,3.63-2.12-1.42-2.07c-4.58.06-10,8.57-10.93,10.16a1.74,1.74,0,0,1,0,.21s9.49-2.79,19.13-.65S71.42,20.15,71.42,20.15Z"/><path class="cls-f1-4" d="M91.46,15.85S87,21.54,83.28,22.17c-5.9,1-32.71-11.52-41.64-11.15S5.2,12.51,0,48.2c0,0,6,3.72,9.3,3.72A61.51,61.51,0,0,1,2.6,53s18.59,13,38.67,8.56,40.53-23.8,46.85-23.8,14.58,5.82,19,.74c6.75-7.82-8.09-6.79-4.4-17.12C108.26,5.79,97.47,6.54,91.46,15.85Z"/><path class="cls-f1-2" d="M27.82,62.24s3.41,9.39,8.62,10.13,11.89-1.12,8.92-4.46a22.5,22.5,0,0,1-4.09-6.32S29.24,59.92,27.82,62.24Z"/><path class="cls-f1-3" d="M38.54,70.26c-4.37-.63-7.23-8.51-7.23-8.51A2.16,2.16,0,0,1,32.67,61c-2.31,0-4.32.35-4.85,1.22,0,0,3.41,9.39,8.62,10.13C41,73,46.79,71.65,46,69,44.65,70.15,41.35,70.66,38.54,70.26Z"/><path class="cls-f1-5" d="M18.81,38.85a6.16,6.16,0,1,1-6.15-6.15A6.15,6.15,0,0,1,18.81,38.85Z"/><path class="cls-f1-6" d="M14.07,40.37A3.06,3.06,0,1,1,11,37.31,3.06,3.06,0,0,1,14.07,40.37Z"/><path class="cls-f1-5" d="M14.9,39a1.2,1.2,0,1,1-1.19-1.2A1.19,1.19,0,0,1,14.9,39Z"/><path class="cls-f1-7" d="M11.15,40.42a1.83,1.83,0,0,1-.66,2.47,1.83,1.83,0,0,1-2.23-1.24,1.82,1.82,0,0,1,.66-2.47A1.82,1.82,0,0,1,11.15,40.42Z"/><path class="cls-f1-8" d="M88.3,27.11c2-.74,5-4.46,6-7.43s4.47-7.44,5.46-4-5.51,9.7-1.52,14.75,8.36,4,7,6.24-6.91,0-11.29-2.26S83.07,29.08,88.3,27.11Z"/><g class="cls-f1-9"><path class="cls-f1-10" d="M47.77,20.65C51.12,27,50.49,32.47,56,33c5.3.52,5.73-5.14,4.25-8.49-1.16-2.61,2.31-7.18,3.88-7.5-8.71-3-17.91-6.19-22.46-6-5.41.23-17.66.74-27.63,9.07h0s7.61.58,8.73,7.64,8.55,10.78,11.9,4.09S35.66,18,38.39,16C42,13.4,44.42,14.33,47.77,20.65Z"/><path class="cls-f1-10" d="M65.68,17.93c2.79,3.48,2,16.49,7.63,16.49s9.08-3.44,6.58-12.5h0a130.4,130.4,0,0,1-14.73-4.53A4,4,0,0,1,65.68,17.93Z"/></g><path class="cls-f1-11" d="M47.39,48.06C38,48.84,27.2,38.89,27.2,38.89c18.16,29-13.62,19.76-13.63,19.76,7.23,2.84,17.25,5.26,27.7,2.94,20.08-4.47,40.53-23.8,46.85-23.8A13.77,13.77,0,0,1,90,38h0C76.23,30.7,56.75,47.27,47.39,48.06Z"/><path class="cls-f1-12" d="M38.67,40s2.6-8.18,8.92-4.83,4.46,7.43,3.72,11.9-5.58,12.27-8.55,7.43a50,50,0,0,1-4.09-7.81S42.7,53.87,45,52s4.45-8.52,2.8-11.83S43,35.58,38.67,40Z"/><path class="cls-f1-3" d="M39.88,42.2s2.1-2.1,4.57-2C44.45,40.23,43.21,42,39.88,42.2Z"/><path class="cls-f1-3" d="M40.08,44.15a7,7,0,0,1,4.91.77S43,45.72,40.08,44.15Z"/><path class="cls-f1-3" d="M40.69,45.8a6.94,6.94,0,0,1,3.85,3.14S42.44,48.63,40.69,45.8Z"/><path class="cls-f1-13" d="M46.51,55.51C29.2,64.32,2.6,53,2.6,53s18.59,13,38.67,8.56,40.53-23.8,46.85-23.8A13.77,13.77,0,0,1,90,38h0C80.57,35.59,63.82,46.7,46.51,55.51Z"/></g></g></g></g></svg>