<svg xmlns="http://www.w3.org/2000/svg" viewBox="0 0 36.73 38.74"><defs><style>.cls-1{isolation:isolate;}.cls-2{fill:#21bfe7;opacity:0.7;mix-blend-mode:multiply;}.cls-3{fill:#87defd;}.cls-4{fill:#fff;}</style></defs><title>b1</title><g class="cls-1"><g id="Layer_2" data-name="Layer 2"><g id="Layer_1-2" data-name="Layer 1"><path class="cls-2" d="M18.37,0C8.23,0,0,8.67,0,19.37S8.23,38.74,18.37,38.74s18.36-8.67,18.36-19.37S28.51,0,18.37,0ZM19,34.45c-8.88,0-16.08-7.6-16.08-17S10.16.52,19,.52s16.08,7.6,16.08,17S27.92,34.45,19,34.45Z"/><path class="cls-3" d="M2.53,15C4.1,8.78,9.05,3.43,15.25,2.84c5.28-.5,6.24,8.34,1.22,9.64C10.57,14,8.26,22.06,8.56,27.8a1.48,1.48,0,0,1-2.21,1.34C1.51,26.57,1.3,19.88,2.53,15Z"/><path class="cls-3" d="M25.43,5.06a3.18,3.18,0,0,1,1.63.62c3.59,1.15,6.65,5.08,5.95,9.05-.39,2.06-1.86,3.76-4,3.55-4.14-.4-9.15-6.28-7.2-10.79A3.63,3.63,0,0,1,25.43,5.06Z"/><path class="cls-4" d="M25.66,3.64c4.45,0,4.45,7.27,0,7.27S21.22,3.64,25.66,3.64Z"/></g></g></g></svg>