<?xml version="1.0" encoding="UTF-8"?>
<svg viewBox="0 0 460 285" xmlns="http://www.w3.org/2000/svg">
 <g label="Layer 1">
  <path transform="translate(-26.16 -169.39) matrix(1 0 0 1 0 -552.36)" d="m143.36 943.62s39.054 16.221 48.893 33.312c4.1647 7.2347 8.1773 19.592 1.8 24.979-5.2436 4.429-13.969-1.619-20.001-4.8943-16.468-8.9419-30.433-23.008-40.945-38.521-2.3026-3.398-4.5128-11.457-4.5128-11.457 11.438-2.378 2.249-7.5149 14.766-3.4183z" fill="#97dff1" fill-rule="evenodd" stroke-width="1px" label="Layer 1"/>
  <path transform="translate(-26.16 -169.39) matrix(1 0 0 1 0 -552.36)" d="m190.04 954.41c6.6506 2.0493 9.909 13.709 11.396 21.761 0.79265 4.2911 2.3502 11.004-1.5296 13.001-5.1735 2.6633-10.69-4.8568-15.296-8.4126-14.06-10.854-36.662-38.668-36.662-38.668-0.19337 0.5801 34.448 9.9632 42.091 12.318z" fill="#6adff1" fill-rule="evenodd" stroke-width="1px" label="Layer 1"/>
  <path transform="translate(-26.16 -169.39) matrix(1 0 0 1 0 -552.36)" d="m27.826 854.57c3.2785-3.1424 9.6008-7.4889 16.323-19.328 12.643-22.266 7.861-50.999 43.33-74.331 20.716-13.627 31.745-20.94 56.748-22.364 42.433-2.4171 97.599 3.2225 140.57 23.484 35.139 16.57 87.95 76.478 87.95 76.478 6.5837 17.578 7.2758 33.57 0 47.416 0 0-50.884 41.721-80.811 54.252-30.563 12.798-64.251 19.624-97.383 19.932-17.974 0.1669-35.464-13.687-53.02-9.8295-3.7208 0.8175-4.7249 8.9363-9.3288 6.6021-25.476-12.916-34.83-29.189-53.545-43.067-9.4861-7.0346-29.596-37.026-28.65-35.537 0-0.8423-13.699-1.6763-16.06-5.3535-1.0242-1.5947 5.8452-4.82 3.6095-9.6824-0.65809-1.4314-2.8285-1.4854-4.3743-1.7893-2.0011-0.3935-6.1182 0-6.1182 0s-0.90177-5.2857 0.76478-6.883z" fill="#1d51c7" stroke="#000" stroke-width="1px" label="Layer 1"/>
  <path transform="translate(-26.16 -169.39) matrix(1 0 0 1 0 -552.36)" d="m372.74 839.39l13.472 5.2854s-23.903-33.187-28.767-49.757c-6.7623-23.034-25.446-43.618-49.487-55.867-12.478-6.358-26.397-9.9345-40.233-12.105-28.133-4.414-57.163-5.191-85.416-1.6224-19.629 2.4793-57.199 15.848-57.199 15.848s56.249-4.0566 83.293 0.13667c29.224 4.5314 46.223 7.2294 80.185 22.771 26.634 12.188 81.248 69.403 84.151 75.312z" fill="#ff0" stroke="#000" stroke-width="1px" label="Layer 1"/>
  <path transform="translate(-26.16 -169.39) matrix(1 0 0 1 0 -552.36)" d="m372.26 838.68c10.531 4.236 21.017 7.4847 31.024 0.1804-9.7268 17.603-5.0015 33.065-0.71761 48.592 0 0-8.6437-6.5981-13.766-6.8831-6.8644-0.3819-19.357 7.1204-19.357 7.1204 5.9262-12.2 8.0788-30.949 2.8166-49.01z" fill="#6e8823" fill-rule="evenodd" stroke="#000" stroke-width="1px" label="Layer 1"/>
  <path transform="translate(-26.16 -169.39) matrix(1 0 0 1 0 -552.36)" d="m402.4 838.85c-0.39023 1.8238 26.949-23.987 43-31.7 10.701-5.1421 20.684-11.1 34.415-9.1773 2.3276 0.326 6.4438 3.9104 4.5887 5.3534-11.09 8.6272-20.894 23.644-25.873 38.193-6.3301 18.495-9.2565 37.419-3.7574 58.524 2.0123 7.7231 2.4892 13.824 4.6892 23.479 1.1938 5.2397 7.0566 20.811 3.5274 21.289-6.3065 0.8553-38.071-36.723-39.769-35.18l-20.42-22.528c-4.0997-16.252-8.7397-31.482-0.40092-48.253z" fill="#12317d" fill-rule="evenodd" stroke="#000" stroke-width="1px" label="Layer 1"/>
  <path transform="translate(-26.16 -169.39) matrix(1 0 0 1 0 -552.36)" d="m477.52 805.62c-12.387 9.9719-25.778 22.305-30.591 33.65-7.1323 16.812-12.537 32.006-7.8892 55.025 2.8155 13.945 9.6676 25.842 13.913 39.572 1.767 5.714-32.405-23.955-39.445-40.823-9.7496-23.358-1.7118-39.029 3.8239-51.527 2.4612-5.5564 7.3798-9.7797 12.007-13.719 10.988-9.3533 22.714-19.429 36.71-22.943 3.717-0.9333 14.457-1.6384 11.472 0.7648z" fill="#599ed0" fill-rule="evenodd" stroke="#000" stroke-width="1px" label="Layer 1"/>
  <path transform="translate(-26.16 -169.39) matrix(1 0 0 1 0 -552.36)" d="m369.93 887.23s15.482-2.8451 18.877 2.5185c6.6516 10.506-4.8371 24.587-11.357 35.534-16.892 28.36-44.407 45.657-72.769 49.357-30.853 4.0248-61.71-8.0247-92.539-12.236-5.5859-0.7631-16.748-2.3617-16.748-2.3617s70.409-8.493 102.43-22.516c26.843-11.754 72.101-50.295 72.101-50.295z" fill="#97dff1" fill-rule="evenodd" stroke="#000" stroke-width="1px" label="Layer 1"/>
  <path transform="translate(-26.16 -169.39) matrix(1 0 0 1 0 -552.36)" d="m27.826 854.57c3.2785-3.1424 9.6008-7.4889 16.323-19.328 12.643-22.266 7.861-50.999 43.33-74.331 48.681-17.678 95.341 128.31-37.474 117.37 0-0.8423-13.699-1.6763-16.06-5.3535-1.0242-1.5947 5.8452-4.82 3.6095-9.6824-0.65809-1.4314-2.8285-1.4854-4.3743-1.7893-2.0011-0.3935-6.1182 0-6.1182 0s-0.90177-5.2857 0.76478-6.883z" fill="#0a0000" fill-opacity=".68944" fill-rule="evenodd" stroke-width="1px" label="Layer 1"/>
  <path transform="translate(-26.16 -169.39) matrix(1 0 0 1 0 -552.36)" d="m97.422 803.33c-4.091 4.6756-22.953 19.865-14.14 12.142 10.713-9.387-6.2347 7.8777-10.525 7.4962-4.9471-0.4399-10.91-4.4979-10.421-10.65 1.4714-18.509 9.1927-14.592 9.8478-23.52 0.63124-8.6031 15.937-9.6554 24.473-8.4126 4.3402 0.6319 9.8912 3.3384 10.707 7.6478 1.131 5.9749-5.9378 10.719-9.9422 15.296z" fill="#2457a3" fill-opacity=".69565" fill-rule="evenodd" stroke-width="1px" label="Layer 1"/>
  <path transform="translate(-26.16 -169.39) matrix(1 0 0 1 0 -552.36)" d="m92.451 784.97a11.089 10.707 0 0 0 -11.09 10.707 11.089 10.707 0 0 0 11.09 10.707 11.089 10.707 0 0 0 11.088 -10.707 11.089 10.707 0 0 0 -11.088 -10.707z" fill="#a40" stroke="#000" stroke-linecap="round" stroke-linejoin="round" stroke-width="3.5" label="Layer 1"/>
  <path transform="translate(-26.16 -169.39) matrix(1 0 0 1 0 -552.36)" d="m79.832 914.98c3.8239 0 15.134-13.512 22.131-20.841 6.3925-6.6962 20.002-4.943 33.229-14.693 15.05-11.093 7.2507-37.034 6.472-55.714-0.74402-17.847 0.18485-39.874-10.592-52.531-2.853-3.3506-10.254-1.1433-13.001 2.2944-10.038 12.56 0.78122 32.174 2.2943 48.181 0.89472 9.4652 7.3955 19.357 4.0058 28.24-1.4641 3.8368-5.4727 6.7995-9.4166 7.9443-4.1822 1.2139-8.7091-2.7836-12.944-1.7688-8.3974 2.0124-13.139 11.906-21.289 14.76-6.068 2.125-13.023-0.321-19.244 1.3004-4.1606 1.0843-11.657 5.5223-11.657 5.5223 8.0359 13.433 19.799 29.313 30.011 37.306z" fill="#b9f0f5" fill-rule="evenodd" stroke-width="1px" label="Layer 1"/>
  <path transform="translate(-26.16 -169.39) matrix(1 0 0 1 0 -552.36)" d="m120.36 856.86c-4.165 9.6975 9.564 20.756 19.12 25.238 5.083 2.3838 11.688 1.5009 16.825-0.7648 7.9166-3.4918 13.79-11.004 18.355-18.355 9.655-15.546 17.936-33.709 17.59-52.005-0.10833-5.7278-6.1182-16.06-6.1182-16.06s-46.637 24.323-56.594 46.652c-2.6787 6.007-7.6302 11.693-9.1774 15.296z" fill="#280b0b" fill-opacity=".96894" fill-rule="evenodd" stroke="#000" stroke-width="1px" label="Layer 1"/>
  <path transform="translate(2 7) matrix(.58743 0 0 .58743 -61.511 -139.97)" d="m240.9 363.85c0 19.718-15.985 35.703-35.703 35.703s-35.703-15.985-35.703-35.703 15.985-35.703 35.703-35.703 35.703 15.985 35.703 35.703z" fill="#fff" stroke="#000" stroke-opacity=".61497" stroke-width="5.7" label="Capa 1"/>
  <path transform="translate(2 -2) matrix(.59594 0 0 .59594 -78.63 -108.38)" d="m244.29 306.54c0 6.7458-5.8051 12.214-12.966 12.214s-12.966-5.4685-12.966-12.214 5.805-12.214 12.966-12.214 12.966 5.4685 12.966 12.214z" opacity=".83857" label="Capa 1"/>
 </g>
</svg>
