<svg id="f3" xmlns="http://www.w3.org/2000/svg" viewBox="0 0 127.99 65.99"><defs><style>.cls-f3-1{fill:#f2c111;}.cls-f3-2{fill:#fbe52c;}.cls-f3-3{fill:#48250f;}.cls-f3-4{fill:#fff;}</style></defs><title>f3</title><g id="Layer_2" data-name="Layer 2"><g id="Layer_1-2" data-name="Layer 1"><g id="CA5"><path class="cls-f3-1" d="M34.87,18.56c5-9.11,9-13.09,19.09-15.33S76.73-1.69,86.62,1.4c2.93.91,6.08,2.21,7.43,5,1.24,6.21.48,16.69-1.65,22.65s-5.31,11.5-8.48,17C81,51.06,78,56.26,73.33,59.85,68,64,61,65.56,54.17,65.92c-7.08.38-15-.77-19.56-6.17a23.81,23.81,0,0,1-4-7.87C26.64,40.45,29.1,29.17,34.87,18.56Z"/><path class="cls-f3-2" d="M71.64,1.47a11.85,11.85,0,0,1,5.59,4.85.59.59,0,0,1-1,.63,24.29,24.29,0,0,0-5-5c-.32-.24,0-.65.36-.52Z"/><path class="cls-f3-2" d="M64.86,3.54A18.88,18.88,0,0,1,69.93,6a13,13,0,0,1,3.8,4.24.88.88,0,0,1-1.49,1c-2.08-2.58-4.62-5.33-7.73-6.66-.51-.22-.18-1.13.35-.94Z"/><path class="cls-f3-2" d="M56.12,4.2a34.23,34.23,0,0,1,9.33,9c.64.87-.77,1.76-1.41.9A81.56,81.56,0,0,0,55.59,5c-.36-.36.07-1,.53-.75Z"/><path class="cls-f3-2" d="M49.89,6.16A46.13,46.13,0,0,1,61,19.57a.8.8,0,0,1-1.34.86A112.39,112.39,0,0,0,49.08,7a.59.59,0,0,1,.81-.87Z"/><path class="cls-f3-2" d="M44.12,10.22c3.17,3.3,6.26,6.64,9.52,9.86a.77.77,0,0,1-1,1.13,46.18,46.18,0,0,1-9.15-10.42c-.26-.42.32-.95.68-.57Z"/><path class="cls-f3-2" d="M39.44,16.1C42.51,20,46.63,22.32,51,24.59c.76.4.32,1.7-.54,1.44-5-1.52-8.85-5.27-11.93-9.33-.44-.58.51-1.17,1-.6Z"/><path class="cls-f3-2" d="M34.29,23.46a37.41,37.41,0,0,0,10.1,4.07c.94.19.83,1.83-.17,1.73-3.83-.35-8.09-2.08-10.46-5.23-.25-.33.19-.75.53-.57Z"/><path class="cls-f3-2" d="M32.82,51.75c3.91-1.31,7.28-3,9.92-6.28.55-.67,1.77.17,1.26.91-2.43,3.59-6.72,6.23-11.17,5.54a.09.09,0,0,1,0-.17Z"/><path class="cls-f3-2" d="M36.65,57.42a17.37,17.37,0,0,0,8.73-8c.45-.91,1.87-.16,1.39.75a13.48,13.48,0,0,1-10.09,7.45c-.1,0-.11-.13,0-.16Z"/><path class="cls-f3-2" d="M42,62.22a29.39,29.39,0,0,0,5.43-5.14A33.16,33.16,0,0,0,51,50.61c.48-1,2-.37,1.81.69-1.06,5.22-5.55,9.88-10.48,11.62-.44.16-.67-.44-.33-.7Z"/><path class="cls-f3-2" d="M51.23,63.68c3.42-3.28,5.42-7.19,7.06-11.57a.81.81,0,0,1,1.58.37C59,57.31,56,61.57,52.39,64.76c-.75.67-1.91-.36-1.16-1.08Z"/><path class="cls-f3-2" d="M60.41,63.12a38.42,38.42,0,0,0,3-8.83c.18-1.1,1.83-.69,1.67.39a15,15,0,0,1-4,8.89.39.39,0,0,1-.63-.45Z"/><path class="cls-f3-2" d="M0,36.23c-.07-4.14.14-8.65,2.84-11.79a3.59,3.59,0,0,1,1.88-1.27,4.31,4.31,0,0,1,3,1c5,3.23,10.09,9.28,15.51,10.9s11-1.31,15.29-4.7c2.77-2.2,5-5,7.37-7.63A61.87,61.87,0,0,1,87.33,3.14a23.85,23.85,0,0,1,9.84,1.08,22.28,22.28,0,0,1,6.71,4.34,43.92,43.92,0,0,1,8.92,11c1.57,2.74,3,5.79,5.66,7.45,1.72,1.06,11.08,2.67,9.3,6-.84,1.6-4.35,1-5.8,1.26a8.87,8.87,0,0,1,3.61.82c1.78,1,2.06,2.92.2,4.08-1.55,1-5.74,0-7.46-.12-4.32-.3-7.37,3.87-10.4,7-6.25,6.4-15.19,9.28-23.82,11.65a52.6,52.6,0,0,1-23,1.61c-9-1.45-13.86-3.95-20-7.89-4-2.59-8.21-7-12.74-8.53-4-1.33-8.44.35-11.89,2.78s-6.35,5.62-9.92,7.87A2.7,2.7,0,0,1,5.43,54c-1,.09-1.79-.89-2.27-1.79C.54,47.4.11,41.72,0,36.23Z"/><path class="cls-f3-1" d="M97.94,13.26c-3.87,4-1.66,11.56.89,15.66,2.84,4.55,7.09,6.85,12,8.57a.85.85,0,0,1-.39,1.65c-6-.7-11.37-5.24-14-10.57-2.27-4.63-3.64-12.16.6-16.12.55-.51,1.4.25.87.81Z"/><path class="cls-f3-3" d="M104.23,24.28c-4.6.18-4.88-7-.27-7.14s4.87,7,.27,7.14Z"/><path class="cls-f3-1" d="M13.82,34.11c-3.9-1-8-1.61-11.78-3a.88.88,0,0,1,.4-1.72c4,.65,7.87,2.07,11.74,3.14a.8.8,0,0,1-.36,1.55Z"/><path class="cls-f3-1" d="M13.22,37.28a63.35,63.35,0,0,1-11.6.64c-1.3-.06-1.38-2.11-.07-2,3.86.2,7.77.33,11.63.27a.57.57,0,0,1,0,1.13Z"/><path class="cls-f3-1" d="M13.34,40.27c-3.46,1.94-8,4.14-12,3.71-.91-.1-.79-1.41-.07-1.67,1.87-.67,4-.68,5.92-1.16A55.37,55.37,0,0,0,13,39.43a.47.47,0,0,1,.39.84Z"/><path class="cls-f3-1" d="M13,43.35c-1.43,3.25-5.56,6.86-9.06,7.57-1,.2-1.84-1.15-.81-1.73,1.68-.95,3.54-1.5,5.19-2.55s3-2.33,4.48-3.47c.12-.09.25.07.2.18Z"/><path class="cls-f3-1" d="M92.28,39.28c-3.11,5.26-7.77,11-13.22,13.93-5.67,3.11-9.82-.09-12.83-5-2.73-4.44-3.8-10.34,1.11-13.69,2.56-1.75,5.91-2.46,8.88-3.1a46.56,46.56,0,0,1,11.52-1.2,1.31,1.31,0,0,1,.1,2.62c-5.43.33-10.81.65-16,2.29-2.28.71-4.68,1.77-5.49,4.24-.92,2.81.54,5.78,2,8.12s3,4.76,5.94,5c2.6.18,5-1.44,6.95-3A55.77,55.77,0,0,0,91.43,38.67c.36-.48,1.16.1.85.61Z"/><path class="cls-f3-1" d="M81.84,44.18c-3.46,2.69-7.93,5.46-12.36,6-1,.14-1.09-1.3-.29-1.66,4-1.82,8.3-2.91,12.31-4.93a.32.32,0,0,1,.34.54Z"/><path class="cls-f3-1" d="M77.74,41.92c-3.14,1.62-6.93,3.77-10.55,3.73a.78.78,0,0,1-.27-1.52,44.19,44.19,0,0,1,5.26-1.39A52.58,52.58,0,0,0,77.33,41c.5-.2.9.63.41.88Z"/><path class="cls-f3-1" d="M76,38.14c-1.64.5-3.27,1.06-4.86,1.7a40.09,40.09,0,0,1-4.75,2,.87.87,0,0,1-.72-1.56c2.71-2,6.86-2.7,10.14-3.25.64-.11.79.93.19,1.12Z"/><path class="cls-f3-4" d="M4.68,25.47A22.37,22.37,0,0,0,1.93,38.24a.73.73,0,0,0,1.46-.06A41.52,41.52,0,0,1,5.32,25.71c.12-.38-.45-.57-.64-.24Z"/><path class="cls-f3-4" d="M33.25,26.69A38.51,38.51,0,0,1,47.92,9.44.83.83,0,0,0,47,8a30.48,30.48,0,0,0-14.3,18.45c-.08.3.39.49.52.2Z"/><path class="cls-f3-4" d="M74,10.69a36.2,36.2,0,0,1,20.18-2.6c1.05.16,1.43-1.48.38-1.62a36.59,36.59,0,0,0-21,3.38c-.47.22-.09,1.06.39.84Z"/><path class="cls-f3-4" d="M99.22,9.23c1.21,1,2.17,2.35,3.47,3.27.67.47,1.36-.59.81-1.12-1.11-1.08-2.58-1.74-3.77-2.7-.38-.3-.89.23-.51.55Z"/><path class="cls-f3-4" d="M119.37,36.64a12,12,0,0,0,4.64.51c1-.16.95-1.76-.06-1.6a10.87,10.87,0,0,1-4.36.16.48.48,0,0,0-.22.93Z"/><path class="cls-f3-4" d="M68.59,57.64c3.57,1.24,7.81,1.54,11.34-.07a.73.73,0,0,0-.45-1.39c-3.66,1-7,1.61-10.75.87a.3.3,0,0,0-.14.59Z"/><path class="cls-f3-4" d="M104.73,19.61l.18.12a.56.56,0,0,0,.94-.43c0-.45-.66-.75-1-.36l-.18.14a.28.28,0,0,0,0,.53Z"/></g></g></g></svg>