<svg id="f5" xmlns="http://www.w3.org/2000/svg" xmlns:xlink="http://www.w3.org/1999/xlink" viewBox="0 0 62 41.27"><defs><style>.cls-f5-1{isolation:isolate;}.cls-f5-2{fill:#ffc022;}.cls-f5-3{fill:#ffb61e;}.cls-f5-4{fill:url(#linear-gradient);}.cls-f5-5{fill:#fff;}.cls-f5-6{fill:#75f9d6;}.cls-f5-7{fill:#cdbc5b;}.cls-f5-8{fill:#ffd621;}.cls-f5-11,.cls-f5-13,.cls-f5-9{opacity:0.5;}.cls-f5-10{fill:#ff0;}.cls-f5-11{fill:#ffbc15;}.cls-f5-11,.cls-f5-13{mix-blend-mode:multiply;}.cls-f5-12{fill:#ff8a2b;}.cls-f5-13{fill:#ffed12;}</style><linearGradient id="linear-gradient" x1="147.08" y1="-179.03" x2="208.99" y2="-179.03" gradientTransform="translate(-149.21 197.34) rotate(0.71)" gradientUnits="userSpaceOnUse"><stop offset="0" stop-color="#fff11e"/><stop offset="1" stop-color="#ff7e23"/></linearGradient></defs><title>f5</title><g class="cls-f5-1"><g id="Layer_2" data-name="Layer 2"><g id="Layer_1-2" data-name="Layer 1"><g id="ca1"><path class="cls-f5-2" d="M36.5,29.49s3.6,3.66,6.57,2.85S47.74,30.5,48.19,29s-3.26-4.77-3.57-4.57S37.13,25.25,36.5,29.49Z"/><path class="cls-f5-3" d="M43.87,30.53c-2.7.73-6-2.59-6-2.59a3.78,3.78,0,0,1,.46-1.27,4.27,4.27,0,0,0-1.85,2.82s3.6,3.66,6.57,2.85S47.74,30.5,48.19,29a1.39,1.39,0,0,0-.06-.77C47.44,29.21,46,29.94,43.87,30.53Z"/><path class="cls-f5-2" d="M12.61,8.54S13.86.72,18.94.08,35,2.64,37.29,4.43s2.3,5.07,3.52,7.28c0,0-11.85-2.12-17.32-3.4A24.51,24.51,0,0,0,12.61,8.54Z"/><path class="cls-f5-3" d="M40.81,11.71,38.6,10l-1.37-.75.7-1c.7-1-2.17-.9-2.63-.57s-1,.64-2.54.12-2.63-1-3.77-1.41-2.41-.68-1.83-.66S28.43,5.07,26,3.82,21.53,5,20,5.3s-1.49-.52-.33-1.39,2.08-1.18-.79-1.19c-2.61,0-5.73,4.8-6.29,5.7l0,.12a24.51,24.51,0,0,1,10.88-.23C29,9.59,40.81,11.71,40.81,11.71Z"/><path class="cls-f5-4" d="M52.24,9.41s-2.59,3.2-4.7,3.54c-3.37.53-18.52-6.79-23.6-6.64S3.21,6.9,0,27.16c0,0,3.36,2.15,5.26,2.18a35.26,35.26,0,0,1-3.82.58s10.48,7.53,21.93,5.14,23.21-13.24,26.81-13.2,8.25,3.41,10.78.56c3.89-4.41-4.56-3.92-2.38-9.77C61.86,3.81,55.72,4.16,52.24,9.41Z"/><path class="cls-f5-2" d="M15.72,35.34s1.87,5.36,4.83,5.82,6.77-.55,5.1-2.48a13,13,0,0,1-2.28-3.62S16.54,34,15.72,35.34Z"/><path class="cls-f5-3" d="M21.76,40c-2.48-.39-4.05-4.88-4.05-4.88a1.2,1.2,0,0,1,.77-.42c-1.31,0-2.45.18-2.76.67,0,0,1.87,5.36,4.83,5.82,2.61.4,5.89-.34,5.47-1.85A6.24,6.24,0,0,1,21.76,40Z"/><path class="cls-f5-5" d="M10.76,22a3.5,3.5,0,1,1-3.45-3.54A3.49,3.49,0,0,1,10.76,22Z"/><path class="cls-f5-6" d="M8.05,22.8A1.74,1.74,0,1,1,6.34,21,1.74,1.74,0,0,1,8.05,22.8Z"/><path class="cls-f5-5" d="M8.54,22a.68.68,0,1,1-1.36,0,.67.67,0,0,1,.69-.67A.68.68,0,0,1,8.54,22Z"/><path class="cls-f5-7" d="M6.4,22.81a1,1,0,0,1-.4,1.4,1,1,0,0,1-1.26-.72,1,1,0,0,1,.39-1.4A1.05,1.05,0,0,1,6.4,22.81Z"/><path class="cls-f5-8" d="M50.36,15.79c1.12-.41,2.85-2.5,3.43-4.19s2.59-4.19,3.14-2.21-3.2,5.47-1,8.37,4.74,2.33,4,3.6S56,21.31,53.51,20,47.37,16.87,50.36,15.79Z"/><g class="cls-f5-9"><path class="cls-f5-10" d="M27.36,11.83c1.86,3.61,1.46,6.74,4.57,7.08s3.3-2.88,2.48-4.79c-.64-1.5,1.36-4.07,2.26-4.24C31.74,8.1,26.53,6.23,23.94,6.31c-3.08.09-10,.3-15.77,5h0s4.32.38,4.91,4.41,4.78,6.19,6.73,2.41.68-7.85,2.25-8.95C24.15,7.67,25.5,8.21,27.36,11.83Z"/><path class="cls-f5-10" d="M37.56,10.41c1.57,2,1,9.39,4.22,9.43S47,18,45.61,12.78h0a73,73,0,0,1-8.35-2.68A2.37,2.37,0,0,1,37.56,10.41Z"/></g><path class="cls-f5-11" d="M27,27.41c-5.33.38-11.42-5.36-11.42-5.36C25.65,38.68,7.65,33.19,7.64,33.19c4.09,1.67,9.77,3.12,15.73,1.87,11.45-2.4,23.21-13.24,26.81-13.2a6.58,6.58,0,0,1,1.07.11h0C43.47,17.74,32.28,27,27,27.41Z"/><path class="cls-f5-12" d="M22,22.78s1.54-4.64,5.11-2.69,2.49,4.26,2,6.79-3.26,6.94-4.91,4.17A28.55,28.55,0,0,1,22,26.58s2.24,4.11,3.56,3,2.59-4.82,1.67-6.71S24.55,20.29,22,22.78Z"/><path class="cls-f5-3" d="M22.72,24a4,4,0,0,1,2.61-1.09A3.53,3.53,0,0,1,22.72,24Z"/><path class="cls-f5-3" d="M22.82,25.14a3.94,3.94,0,0,1,2.78.47A3.49,3.49,0,0,1,22.82,25.14Z"/><path class="cls-f5-3" d="M23.15,26.08a3.92,3.92,0,0,1,2.17,1.81A3.52,3.52,0,0,1,23.15,26.08Z"/><path class="cls-f5-13" d="M26.4,31.64c-9.91,4.89-25-1.72-25-1.72s10.48,7.53,21.93,5.14,23.21-13.24,26.81-13.2a6.58,6.58,0,0,1,1.07.11h0C45.9,20.56,36.3,26.76,26.4,31.64Z"/></g></g></g></g></svg>