<svg xmlns="http://www.w3.org/2000/svg" xmlns:xlink="http://www.w3.org/1999/xlink" viewBox="0 0 81.06 53.29"><defs><style>.cls-1{isolation:isolate;}.cls-2{fill:#ffc022;}.cls-3{fill:#ffb61e;}.cls-4{fill:url(#linear-gradient);}.cls-5{fill:#fff;}.cls-6{fill:#75f9d6;}.cls-7{fill:#cdbc5b;}.cls-8{fill:#ffd621;}.cls-11,.cls-13,.cls-9{opacity:0.5;}.cls-10{fill:#ff0;}.cls-11{fill:#ffbc15;}.cls-11,.cls-13{mix-blend-mode:multiply;}.cls-12{fill:#ff8a2b;}.cls-13{fill:#ffed12;}</style><linearGradient id="linear-gradient" x1="-184.14" y1="-52.03" x2="-103.74" y2="-52.03" gradientTransform="matrix(0.97, 0.25, -0.25, 0.97, 167.38, 116.21)" gradientUnits="userSpaceOnUse"><stop offset="0" stop-color="#fff11e"/><stop offset="1" stop-color="#ff7e23"/></linearGradient></defs><title>f6</title><g class="cls-1"><g id="Layer_2" data-name="Layer 2"><g id="Layer_1-2" data-name="Layer 1"><path class="cls-2" d="M45.29,42.6s3.4,5.73,7.4,5.64,6.47-.87,7.48-2.59-2.62-7-3.08-6.87S47.41,37.45,45.29,42.6Z"/><path class="cls-3" d="M54.26,46.2c-3.63.08-6.72-5.13-6.72-5.13a4.2,4.2,0,0,1,1-1.45,5.52,5.52,0,0,0-3.22,3s3.4,5.73,7.4,5.64,6.47-.87,7.48-2.59a1.7,1.7,0,0,0,.16-1C59.17,45.65,57.17,46.13,54.26,46.2Z"/><path class="cls-2" d="M21.7,8.74s4-9.47,10.62-8.69S51.74,8.27,54.09,11.24s1.33,7.11,2.18,10.28c0,0-14.28-6.37-20.78-9.69A31.86,31.86,0,0,0,21.7,8.74Z"/><path class="cls-3" d="M56.27,21.52,54,18.63l-1.49-1.36,1.2-1.05c1.2-1-2.47-1.81-3.15-1.54s-1.52.49-3.23-.63-3-2.11-4.32-3-2.82-1.6-2.1-1.4,1.8-.4-.84-2.72-6,.1-8,0-1.71-1.12,0-1.85,3-.84-.63-1.74c-3.29-.82-8.72,4.27-9.7,5.22l-.07.15a31.86,31.86,0,0,1,13.79,3.09C42,15.15,56.27,21.52,56.27,21.52Z"/><path class="cls-4" d="M71.39,22.18s-4.25,3.23-7,3C60,24.8,43.13,10.85,36.68,9.45S10.36,3.74,0,28.28c0,0,3.56,3.76,6,4.39a47,47,0,0,1-5-.45S11.83,45,27,45.52s33.39-9.46,37.91-8.28,9.34,6.87,13.41,4.06c6.28-4.34-4.52-6.36,0-13.06C85.26,18.12,77.42,16.64,71.39,22.18Z"/><path class="cls-2" d="M17.27,43.49s.69,7.34,4.27,8.84,8.72,1.42,7.21-1.53A16.61,16.61,0,0,1,27,45.52S18.72,42.09,17.27,43.49Z"/><path class="cls-3" d="M23.44,51.22c-3-1.27-3.59-7.43-3.59-7.43A1.64,1.64,0,0,1,21,43.52c-1.66-.4-3.15-.55-3.69,0,0,0,.69,7.34,4.27,8.84,3.17,1.33,7.54,1.41,7.47-.62C27.83,52.28,25.37,52,23.44,51.22Z"/><path class="cls-5" d="M15.19,25.1a4.55,4.55,0,1,1-3.26-5.54A4.56,4.56,0,0,1,15.19,25.1Z"/><path class="cls-6" d="M11.51,25.3A2.26,2.26,0,1,1,9.9,22.54,2.26,2.26,0,0,1,11.51,25.3Z"/><path class="cls-5" d="M12.37,24.46A.88.88,0,1,1,10.66,24a.88.88,0,1,1,1.71.45Z"/><path class="cls-7" d="M9.42,24.79a1.36,1.36,0,0,1-.93,1.64,1.35,1.35,0,0,1-1.37-1.3,1.36,1.36,0,0,1,.93-1.64A1.36,1.36,0,0,1,9.42,24.79Z"/><path class="cls-8" d="M67,29.64c1.54-.16,4.37-2.27,5.63-4.21s4.58-4.48,4.64-1.82-5.74,5.91-3.83,10.26,5.24,4.4,3.87,5.77-4.94-1.29-7.65-3.71S62.93,30.07,67,29.64Z"/><g class="cls-9"><path class="cls-10" d="M39.27,17.47c1.22,5.14-.26,9,3.56,10.37s5.06-2.61,4.62-5.28c-.35-2.09,3-4.7,4.17-4.64C46,14.14,40,10.17,36.68,9.45c-3.91-.84-12.76-2.75-21.43,1.34h0s5.33,1.83,4.81,7.09,4.11,9.3,7.75,5.14,3.3-9.69,5.62-10.59C36.52,11.23,38.05,12.34,39.27,17.47Z"/><path class="cls-10" d="M52.57,18.86C53.93,21.87,51,31,55,32.08s7.13-.78,7-7.72h0a101.06,101.06,0,0,1-9.69-6A2.16,2.16,0,0,1,52.57,18.86Z"/></g><path class="cls-11" d="M33.9,37c-6.84-1.18-12.72-10.31-12.72-10.31C28.75,50.8,7.76,38.27,7.76,38.27c4.63,3.38,11.34,7,19.25,7.25,15.18.55,33.39-9.46,37.91-8.28a9.1,9.1,0,0,1,1.32.47h0C57.74,30,40.74,38.18,33.9,37Z"/><path class="cls-12" d="M29.16,29.63s3.38-5.36,7.28-1.8,1.8,6.15.44,9.2-6.27,7.73-7.5,3.72a36.91,36.91,0,0,1-1.47-6.34s1.55,5.87,3.55,4.93,4.76-5.26,4.2-7.93S33.1,27.26,29.16,29.63Z"/><path class="cls-3" d="M29.62,31.41a5.13,5.13,0,0,1,3.63-.56A4.55,4.55,0,0,1,29.62,31.41Z"/><path class="cls-3" d="M29.4,32.84a5.14,5.14,0,0,1,3.36,1.47A4.55,4.55,0,0,1,29.4,32.84Z"/><path class="cls-3" d="M29.53,34.13a5.17,5.17,0,0,1,2.17,3A4.54,4.54,0,0,1,29.53,34.13Z"/><path class="cls-13" d="M31.89,42.16C17.87,45.23,1,32.22,1,32.22S11.83,45,27,45.52s33.39-9.46,37.91-8.28a9.1,9.1,0,0,1,1.32.47h0C59.93,34.26,45.89,39.09,31.89,42.16Z"/></g></g></g></svg>