<svg xmlns="http://www.w3.org/2000/svg" xmlns:xlink="http://www.w3.org/1999/xlink" viewBox="0 0 130.54 88.82"><defs><style>.cls-1{isolation:isolate;}.cls-2{fill:#f15d22;}.cls-3{fill:#d9531e;}.cls-4{fill:url(#linear-gradient);}.cls-5{fill:#fff;}.cls-6{fill:#0096d6;}.cls-7{fill:#58595b;}.cls-8{fill:#f37321;}.cls-11,.cls-13,.cls-9{opacity:0.5;}.cls-10{fill:#ffd200;}.cls-11{fill:#b95915;}.cls-11,.cls-13{mix-blend-mode:multiply;}.cls-12{fill:#9c272b;}.cls-13{fill:#c88a12;}</style><linearGradient id="linear-gradient" x1="433.51" y1="-121.2" x2="567.88" y2="-121.2" gradientTransform="matrix(-0.99, -0.15, -0.15, 0.99, 543.77, 234.45)" gradientUnits="userSpaceOnUse"><stop offset="0" stop-color="#f78e1e"/><stop offset="1" stop-color="#e31b23"/></linearGradient></defs><title>f7</title><g class="cls-1"><g id="Layer_2" data-name="Layer 2"><g id="Layer_1-2" data-name="Layer 1"><path class="cls-2" d="M51.53,58.32s-9,6.59-15.08,3.83-9.38-5.57-9.81-8.88,8.63-9.08,9.23-8.55S51.64,49,51.53,58.32Z"/><path class="cls-3" d="M35.37,58c5.53,2.51,13.7-3.48,13.7-3.48a7.52,7.52,0,0,0-.54-2.87,9.3,9.3,0,0,1,3,6.69s-9,6.59-15.08,3.83-9.38-5.57-9.81-8.88A2.81,2.81,0,0,1,27,51.66C28.17,53.93,31,56,35.37,58Z"/><path class="cls-2" d="M110,21.67S110,4.49,99.31,1.36s-35.25-.06-40.81,3S51.81,14.4,48.43,18.72c0,0,26.13-.44,38.29-1.31S110,21.67,110,21.67Z"/><path class="cls-3" d="M48.43,18.72l5.35-3L57,14.63l-1.16-2.4c-1.16-2.4,5-1.17,5.85-.31s2,1.75,5.38,1.15,6-1.3,8.58-1.74,5.38-.61,4.14-.76-2.5-1.81,3.07-3.65S92.05,11,95.16,12.16s3.37-.6,1.19-2.87S92.29,6,98.45,7c5.59.9,10.61,12.27,11.5,14.38v.26s-11.08-5.12-23.23-4.26S48.43,18.72,48.43,18.72Z"/><path class="cls-4" d="M24.74,9.84s4.43,7.75,8.84,9.2c7,2.32,42-8.13,52.87-6.06s44.21,8.43,44.09,53c0,0-7.94,3.46-12,2.85a75.07,75.07,0,0,0,8,2.58s-25.06,12.51-48.76,3.42S32.56,38.38,24.85,37.23,6,41.69,1.56,34.7C-5.27,23.91,12.67,27.87,10,14.59,6.07-5.49,19.1-2.63,24.74,9.84Z"/><path class="cls-2" d="M94,78S88.16,88.86,81.67,88.82,67.35,85.3,71.59,81.76a28.16,28.16,0,0,0,6.14-7S92.72,74.93,94,78Z"/><path class="cls-3" d="M79.48,85.86c5.45,0,10.38-9.06,10.38-9.06a2.64,2.64,0,0,0-1.53-1.15c2.82.48,5.21,1.22,5.7,2.38,0,0-5.87,10.83-12.36,10.79-5.74,0-12.51-2.75-11.07-5.84C72.05,84.63,76,85.84,79.48,85.86Z"/><path class="cls-5" d="M109.27,51.1a7.6,7.6,0,1,0,8.63-6.39A7.6,7.6,0,0,0,109.27,51.1Z"/><path class="cls-6" d="M114.78,53.81a3.78,3.78,0,1,0,4.3-3.18A3.78,3.78,0,0,0,114.78,53.81Z"/><path class="cls-5" d="M114,52a1.48,1.48,0,1,0,1.68-1.24A1.48,1.48,0,0,0,114,52Z"/><path class="cls-7" d="M118.34,54.4a2,2,0,1,0,3.31,2,2,2,0,1,0-3.31-2Z"/><path class="cls-8" d="M26.56,24.16C24.29,22.9,21.32,17.81,20.64,14s-4.1-9.89-5.94-5.83,5,12.84-.82,18.28S2.94,29.79,4.16,32.79s8.43,1.25,14.19-.71S32.6,27.51,26.56,24.16Z"/><g class="cls-9"><path class="cls-10" d="M77.22,23.62C72,30.73,71.75,37.56,65,37.22c-6.56-.32-6.07-7.31-3.64-11.13,1.89-3-1.52-9.18-3.38-9.87,11.18-2.1,23-4.3,28.51-3.24,6.56,1.26,21.43,4.11,32.08,16.08h0s-9.39-.67-12,7.75-12.4,11.61-15.27,2.84,1.26-17.06-1.71-20C85.54,15.82,82.45,16.51,77.22,23.62Z"/><path class="cls-10" d="M55.85,17.05c-4.05,3.75-5.5,19.77-12.31,18.76S33.07,30,37.77,19.34h0c4.56-.22,11.48-1.48,18.81-2.86A4.73,4.73,0,0,0,55.85,17.05Z"/></g><path class="cls-11" d="M72.71,57.15C84,59.81,99,49.62,99,49.62c-27.43,32.14,13,26.6,13.06,26.6-9.35,2.17-22,3.3-34.35-1.44C54,65.69,32.56,38.38,24.85,37.23a17.85,17.85,0,0,0-2.35-.15h0C40.65,30.73,61.42,54.5,72.71,57.15Z"/><path class="cls-12" d="M84.82,48.93s-1.7-10.46-10-7.52S68,49.68,68.1,55.26s4.58,16,9.09,10.63A62.5,62.5,0,0,0,83.6,57.1s-6.22,8-8.67,5.26S71,51.16,73.66,47.42,80.3,42.71,84.82,48.93Z"/><path class="cls-3" d="M82.94,51.37s-2.18-2.94-5.22-3.24C77.72,48.13,78.92,50.46,82.94,51.37Z"/><path class="cls-3" d="M82.35,53.72s-3.42-1.32-6.14.05C76.21,53.77,78.47,55.1,82.35,53.72Z"/><path class="cls-3" d="M81.3,55.61s-3.61.58-5.28,3.13C76,58.74,78.64,58.76,81.3,55.61Z"/><path class="cls-13" d="M72.43,66.41c19.53,13.9,54.06,5,54.06,5s-25.06,12.51-48.76,3.42S32.56,38.38,24.85,37.23a17.85,17.85,0,0,0-2.35-.15h0C34.45,35.92,52.89,52.52,72.43,66.41Z"/></g></g></g></svg>